<svg xmlns="http://www.w3.org/2000/svg" version="1.1" xmlns:xlink="http://www.w3.org/1999/xlink" xmlns:svgjs="http://svgjs.dev/svgjs" viewBox="0 0 800 800"><defs><linearGradient x1="50%" y1="0%" x2="50%" y2="100%" id="ffflurry-grad" gradientTransform="rotate(270)"><stop stop-color="hsl(238, 3%, 88%)" stop-opacity="1" offset="0%"></stop><stop stop-color="hsl(230, 55%, 50%)" stop-opacity="1" offset="45%"></stop><stop stop-color="hsl(230, 55%, 70%)" stop-opacity="1" offset="100%"></stop></linearGradient></defs><rect width="100%" height="100%" fill="hsl(238, 3%, 88%)"></rect><g fill="url(#ffflurry-grad)"><rect width="419" height="3" x="-169.5" y="535.5" rx="1.5" transform="rotate(45, 40, 537)"></rect><rect width="350" height="3" x="225" y="30.5" rx="1.5" transform="rotate(45, 400, 32)"></rect><rect width="41" height="3" x="571.5" y="279.5" rx="1.5" transform="rotate(45, 592, 281)"></rect><rect width="136" height="3" x="444" y="269.5" rx="1.5" transform="rotate(45, 512, 271)"></rect><rect width="325" height="3" x="24.5" y="639.5" rx="1.5" transform="rotate(45, 187, 641)"></rect><rect width="630" height="3" x="-146" y="532.5" rx="1.5" transform="rotate(45, 169, 534)"></rect><rect width="476" height="3" x="528" y="172.5" rx="1.5" transform="rotate(45, 766, 174)"></rect><rect width="429" height="3" x="543.5" y="100.5" rx="1.5" transform="rotate(45, 758, 102)"></rect><rect width="477" height="3" x="269.5" y="442.5" rx="1.5" transform="rotate(45, 508, 444)"></rect><rect width="231" height="3" x="243.5" y="577.5" rx="1.5" transform="rotate(45, 359, 579)"></rect><rect width="596" height="3" x="86" y="107.5" rx="1.5" transform="rotate(45, 384, 109)"></rect><rect width="439" height="3" x="39.5" y="655.5" rx="1.5" transform="rotate(45, 259, 657)"></rect><rect width="413" height="3" x="167.5" y="191.5" rx="1.5" transform="rotate(45, 374, 193)"></rect><rect width="534" height="3" x="12" y="757.5" rx="1.5" transform="rotate(45, 279, 759)"></rect><rect width="382" height="3" x="334" y="508.5" rx="1.5" transform="rotate(45, 525, 510)"></rect><rect width="199" height="3" x="485.5" y="168.5" rx="1.5" transform="rotate(45, 585, 170)"></rect><rect width="95" height="3" x="724.5" y="488.5" rx="1.5" transform="rotate(45, 772, 490)"></rect><rect width="463" height="3" x="415.5" y="599.5" rx="1.5" transform="rotate(45, 647, 601)"></rect><rect width="285" height="3" x="190.5" y="393.5" rx="1.5" transform="rotate(45, 333, 395)"></rect><rect width="472" height="3" x="480" y="39.5" rx="1.5" transform="rotate(45, 716, 41)"></rect><rect width="310" height="3" x="567" y="664.5" rx="1.5" transform="rotate(45, 722, 666)"></rect><rect width="538" height="3" x="245" y="752.5" rx="1.5" transform="rotate(45, 514, 754)"></rect><rect width="108" height="3" x="537" y="691.5" rx="1.5" transform="rotate(45, 591, 693)"></rect><rect width="489" height="3" x="211.5" y="384.5" rx="1.5" transform="rotate(45, 456, 386)"></rect><rect width="148" height="3" x="339" y="758.5" rx="1.5" transform="rotate(45, 413, 760)"></rect><rect width="409" height="3" x="553.5" y="580.5" rx="1.5" transform="rotate(45, 758, 582)"></rect><rect width="389" height="3" x="27.5" y="125.5" rx="1.5" transform="rotate(45, 222, 127)"></rect><rect width="62" height="3" x="515" y="364.5" rx="1.5" transform="rotate(45, 546, 366)"></rect><rect width="204" height="3" x="555" y="470.5" rx="1.5" transform="rotate(45, 657, 472)"></rect><rect width="511" height="3" x="-69.5" y="330.5" rx="1.5" transform="rotate(45, 186, 332)"></rect><rect width="428" height="3" x="-6" y="214.5" rx="1.5" transform="rotate(45, 208, 216)"></rect><rect width="620" height="3" x="365" y="156.5" rx="1.5" transform="rotate(45, 675, 158)"></rect><rect width="516" height="3" x="-14" y="437.5" rx="1.5" transform="rotate(45, 244, 439)"></rect><rect width="432" height="3" x="234" y="597.5" rx="1.5" transform="rotate(45, 450, 599)"></rect><rect width="318" height="3" x="257" y="481.5" rx="1.5" transform="rotate(45, 416, 483)"></rect><rect width="146" height="3" x="677" y="750.5" rx="1.5" transform="rotate(45, 750, 752)"></rect><rect width="485" height="3" x="332.5" y="47.5" rx="1.5" transform="rotate(45, 575, 49)"></rect><rect width="181" height="3" x="168.5" y="554.5" rx="1.5" transform="rotate(45, 259, 556)"></rect><rect width="233" height="3" x="464.5" y="541.5" rx="1.5" transform="rotate(45, 581, 543)"></rect><rect width="47" height="3" x="102.5" y="474.5" rx="1.5" transform="rotate(45, 126, 476)"></rect><rect width="261" height="3" x="335.5" y="529.5" rx="1.5" transform="rotate(45, 466, 531)"></rect><rect width="583" height="3" x="47.5" y="484.5" rx="1.5" transform="rotate(45, 339, 486)"></rect><rect width="515" height="3" x="184.5" y="254.5" rx="1.5" transform="rotate(45, 442, 256)"></rect><rect width="198" height="3" x="14" y="608.5" rx="1.5" transform="rotate(45, 113, 610)"></rect><rect width="124" height="3" x="329" y="344.5" rx="1.5" transform="rotate(45, 391, 346)"></rect><rect width="362" height="3" x="-37" y="748.5" rx="1.5" transform="rotate(45, 144, 750)"></rect><rect width="258" height="3" x="260" y="666.5" rx="1.5" transform="rotate(45, 389, 668)"></rect><rect width="218" height="3" x="470" y="618.5" rx="1.5" transform="rotate(45, 579, 620)"></rect><rect width="160" height="3" x="55" y="384.5" rx="1.5" transform="rotate(45, 135, 386)"></rect><rect width="114" height="3" x="172" y="35.5" rx="1.5" transform="rotate(45, 229, 37)"></rect><rect width="138" height="3" x="-23" y="692.5" rx="1.5" transform="rotate(45, 46, 694)"></rect><rect width="44" height="3" x="730" y="246.5" rx="1.5" transform="rotate(45, 752, 248)"></rect><rect width="367" height="3" x="141.5" y="685.5" rx="1.5" transform="rotate(45, 325, 687)"></rect><rect width="228" height="3" x="558" y="277.5" rx="1.5" transform="rotate(45, 672, 279)"></rect><rect width="407" height="3" x="476.5" y="539.5" rx="1.5" transform="rotate(45, 680, 541)"></rect><rect width="99" height="3" x="-1.5" y="140.5" rx="1.5" transform="rotate(45, 48, 142)"></rect><rect width="386" height="3" x="480" y="372.5" rx="1.5" transform="rotate(45, 673, 374)"></rect><rect width="453" height="3" x="-83.5" y="124.5" rx="1.5" transform="rotate(45, 143, 126)"></rect><rect width="789" height="3" x="90.5" y="130.5" rx="1.5" transform="rotate(45, 485, 132)"></rect><rect width="476" height="3" x="514" y="414.5" rx="1.5" transform="rotate(45, 752, 416)"></rect><rect width="472" height="3" x="522" y="336.5" rx="1.5" transform="rotate(45, 758, 338)"></rect><rect width="102" height="3" x="602" y="751.5" rx="1.5" transform="rotate(45, 653, 753)"></rect><rect width="348" height="3" x="418" y="472.5" rx="1.5" transform="rotate(45, 592, 474)"></rect><rect width="459" height="3" x="-193.5" y="248.5" rx="1.5" transform="rotate(45, 36, 250)"></rect><rect width="732" height="3" x="-249" y="252.5" rx="1.5" transform="rotate(45, 117, 254)"></rect><rect width="442" height="3" x="-146" y="39.5" rx="1.5" transform="rotate(45, 75, 41)"></rect><rect width="441" height="3" x="-178.5" y="347.5" rx="1.5" transform="rotate(45, 42, 349)"></rect><rect width="81" height="3" x="568.5" y="403.5" rx="1.5" transform="rotate(45, 609, 405)"></rect><rect width="118" height="3" x="209" y="299.5" rx="1.5" transform="rotate(45, 268, 301)"></rect><rect width="288" height="3" x="329" y="682.5" rx="1.5" transform="rotate(45, 473, 684)"></rect><rect width="88" height="3" x="253" y="97.5" rx="1.5" transform="rotate(45, 297, 99)"></rect><rect width="181" height="3" x="-39.5" y="431.5" rx="1.5" transform="rotate(45, 51, 433)"></rect><rect width="564" height="3" x="72" y="270.5" rx="1.5" transform="rotate(45, 354, 272)"></rect><rect width="71" height="3" x="260.5" y="183.5" rx="1.5" transform="rotate(45, 296, 185)"></rect><rect width="327" height="3" x="354.5" y="614.5" rx="1.5" transform="rotate(45, 518, 616)"></rect><rect width="115" height="3" x="656.5" y="477.5" rx="1.5" transform="rotate(45, 714, 479)"></rect><rect width="103" height="3" x="527.5" y="772.5" rx="1.5" transform="rotate(45, 579, 774)"></rect></g></svg>